<mxfile host="app.diagrams.net" agent="Mozilla/5.0 (X11; Linux x86_64) AppleWebKit/537.36 (KHTML, like Gecko) Chrome/127.0.0.0 Safari/537.36" version="24.7.14">
  <diagram name="Page-1" id="DBxunoqnh1ms4ItBoYgd">
    <mxGraphModel dx="3485" dy="1662" grid="1" gridSize="10" guides="1" tooltips="1" connect="1" arrows="1" fold="1" page="1" pageScale="1" pageWidth="850" pageHeight="1100" math="0" shadow="0">
      <root>
        <mxCell id="0" />
        <mxCell id="1" parent="0" />
        <mxCell id="ik4SbChLGUNpw0kpHCm7-1" value="binlogs" style="outlineConnect=0;dashed=0;verticalLabelPosition=bottom;verticalAlign=top;align=center;html=1;shape=mxgraph.aws3.mysql_db_instance_2;fillColor=#2E73B8;gradientColor=none;" vertex="1" parent="1">
          <mxGeometry x="-1690" y="293.5" width="60" height="63" as="geometry" />
        </mxCell>
        <mxCell id="ik4SbChLGUNpw0kpHCm7-2" value="" style="rounded=1;whiteSpace=wrap;html=1;dashed=1;" vertex="1" parent="1">
          <mxGeometry x="-1600" y="180" width="400" height="360" as="geometry" />
        </mxCell>
        <mxCell id="ik4SbChLGUNpw0kpHCm7-3" value="&lt;b&gt;Debezium&lt;/b&gt;&lt;div&gt;&lt;b&gt;Queue&lt;/b&gt;&lt;/div&gt;" style="verticalLabelPosition=bottom;html=1;verticalAlign=top;align=center;strokeColor=none;fillColor=#00BEF2;shape=mxgraph.azure.queue_generic;pointerEvents=1;" vertex="1" parent="1">
          <mxGeometry x="-1570" y="300" width="180" height="50" as="geometry" />
        </mxCell>
        <mxCell id="ik4SbChLGUNpw0kpHCm7-6" style="edgeStyle=orthogonalEdgeStyle;rounded=0;orthogonalLoop=1;jettySize=auto;html=1;entryX=0;entryY=0.5;entryDx=0;entryDy=0;entryPerimeter=0;" edge="1" parent="1" source="ik4SbChLGUNpw0kpHCm7-1" target="ik4SbChLGUNpw0kpHCm7-3">
          <mxGeometry relative="1" as="geometry" />
        </mxCell>
        <mxCell id="ik4SbChLGUNpw0kpHCm7-7" value="ClickHouse" style="shape=cylinder3;whiteSpace=wrap;html=1;boundedLbl=1;backgroundOutline=1;size=15;fillColor=#fff2cc;strokeColor=#d6b656;" vertex="1" parent="1">
          <mxGeometry x="-1120" y="300" width="60" height="80" as="geometry" />
        </mxCell>
        <mxCell id="ik4SbChLGUNpw0kpHCm7-8" value="&lt;b&gt;Main&lt;br&gt;Thread&lt;/b&gt;" style="whiteSpace=wrap;html=1;" vertex="1" parent="1">
          <mxGeometry x="-1335" y="190" width="60" height="270" as="geometry" />
        </mxCell>
        <mxCell id="ik4SbChLGUNpw0kpHCm7-9" style="edgeStyle=orthogonalEdgeStyle;rounded=0;orthogonalLoop=1;jettySize=auto;html=1;entryX=-0.017;entryY=0.53;entryDx=0;entryDy=0;entryPerimeter=0;" edge="1" parent="1" source="ik4SbChLGUNpw0kpHCm7-3" target="ik4SbChLGUNpw0kpHCm7-8">
          <mxGeometry relative="1" as="geometry" />
        </mxCell>
        <mxCell id="ik4SbChLGUNpw0kpHCm7-16" value="&lt;b&gt;Sink Connector Lightweight&lt;/b&gt;" style="text;html=1;align=center;verticalAlign=middle;whiteSpace=wrap;rounded=0;" vertex="1" parent="1">
          <mxGeometry x="-1450" y="560" width="190" height="30" as="geometry" />
        </mxCell>
        <mxCell id="ik4SbChLGUNpw0kpHCm7-29" style="edgeStyle=orthogonalEdgeStyle;rounded=0;orthogonalLoop=1;jettySize=auto;html=1;entryX=0;entryY=0.5;entryDx=0;entryDy=0;entryPerimeter=0;" edge="1" parent="1" source="ik4SbChLGUNpw0kpHCm7-8" target="ik4SbChLGUNpw0kpHCm7-7">
          <mxGeometry relative="1" as="geometry" />
        </mxCell>
        <mxCell id="ik4SbChLGUNpw0kpHCm7-30" value="&lt;b&gt;Single Threaded&lt;/b&gt;: Batch is defined by debezium batch size parameters&amp;nbsp;" style="text;html=1;align=center;verticalAlign=middle;whiteSpace=wrap;rounded=0;" vertex="1" parent="1">
          <mxGeometry x="-1540" y="480" width="230" height="30" as="geometry" />
        </mxCell>
      </root>
    </mxGraphModel>
  </diagram>
</mxfile>
